<?xml version="1.0" standalone="no"?>
<!DOCTYPE svg PUBLIC "-//W3C//DTD SVG 20010904//EN"
 "http://www.w3.org/TR/2001/REC-SVG-20010904/DTD/svg10.dtd">
<svg version="1.0" xmlns="http://www.w3.org/2000/svg"
 width="233.000000pt" height="233.000000pt" viewBox="0 0 233.000000 233.000000"
 preserveAspectRatio="xMidYMid meet">
<metadata>
Created by potrace 1.14, written by Peter Selinger 2001-2017
</metadata>
<g transform="translate(0.000000,233.000000) scale(0.100000,-0.100000)"
fill="#000000" stroke="none">
<path d="M1704 2287 c-24 -53 -140 -171 -268 -272 -236 -187 -308 -311 -277
-480 13 -68 54 -161 107 -242 43 -63 37 -67 74 57 28 93 71 187 123 265 63 94
201 223 315 296 l101 64 -3 68 c-4 83 -38 173 -84 228 -54 63 -66 65 -88 16z"/>
<path d="M305 2224 c-52 -27 -67 -46 -61 -77 18 -89 188 -194 320 -198 38 -1
39 -2 11 -8 -62 -15 -198 14 -298 63 -37 18 -69 30 -72 28 -2 -3 17 -46 42
-96 54 -105 137 -196 208 -227 25 -11 74 -22 111 -24 36 -2 70 -7 75 -12 28
-28 130 -331 143 -423 3 -25 8 -56 11 -69 17 -89 26 -537 13 -641 -12 -90 -26
-157 -53 -242 -21 -71 -23 -84 -11 -112 30 -71 97 -90 150 -43 20 17 27 35 32
77 23 228 71 345 262 650 60 96 107 179 104 184 -2 5 -31 -20 -64 -55 -32 -35
-94 -101 -136 -147 l-77 -83 -7 33 c-4 18 -10 49 -13 68 -11 70 -84 347 -115
435 -43 124 -55 154 -117 286 l-55 116 26 27 c50 55 56 123 20 217 -29 74 -89
146 -204 247 l-26 22 -59 -49 c-33 -27 -61 -48 -63 -47 -1 2 1 14 6 27 5 14 5
38 0 57 -7 28 -13 32 -41 32 -18 0 -45 -7 -62 -16z"/>
<path d="M2050 1878 c-212 -61 -320 -113 -414 -199 -120 -110 -203 -282 -231
-481 l-7 -47 37 -7 c20 -3 69 -4 109 -2 203 13 323 153 457 533 17 50 44 118
59 153 16 34 28 62 27 61 -1 -1 -18 -6 -37 -11z"/>
<path d="M1012 1528 l-124 -62 7 -30 c11 -46 13 -67 14 -108 1 -21 5 -38 10
-38 7 0 211 115 238 134 1 1 -4 21 -12 44 -9 23 -13 59 -10 82 3 22 4 40 3 40
-2 0 -59 -28 -126 -62z"/>
<path d="M700 1322 c-115 -87 -228 -261 -254 -388 -23 -113 10 -212 95 -288
39 -36 162 -101 203 -108 19 -3 21 7 17 76 -1 8 -24 22 -53 31 -155 50 -204
134 -147 248 17 32 101 139 147 186 37 38 42 57 40 160 -1 56 -5 104 -8 106
-3 2 -21 -8 -40 -23z"/>
<path d="M1758 1165 c-34 -23 -37 -28 -27 -52 13 -35 9 -139 -8 -220 -64 -306
-263 -586 -448 -629 -74 -18 -166 -3 -231 37 l-32 19 -12 -65 c-14 -75 -16
-71 71 -119 80 -44 177 -59 269 -42 127 24 302 175 396 342 94 167 143 324
148 477 4 106 -19 195 -63 247 l-26 31 -37 -26z"/>
</g>
</svg>
